[PACKET]
codec_type=video
stream_index=0
pts=0
pts_time=0.000000
dts=-32768
dts_time=-2.000000
duration=16384
duration_time=1.000000
convergence_duration=N/A
convergence_duration_time=N/A
size=717
pos=48
flags=K_
[/PACKET]
[PACKET]
codec_type=video
stream_index=0
pts=16384
pts_time=1.000000
dts=-16384
dts_time=-1.000000
duration=16384
duration_time=1.000000
convergence_duration=N/A
convergence_duration_time=N/A
size=28
pos=765
flags=__
[/PACKET]
[PACKET]
codec_type=video
stream_index=0
pts=32768
pts_time=2.000000
dts=0
dts_time=0.000000
duration=16384
duration_time=1.000000
convergence_duration=N/A
convergence_duration_time=N/A
size=32
pos=793
flags=__
[/PACKET]
[PACKET]
codec_type=video
stream_index=0
pts=49152
pts_time=3.000000
dts=16384
dts_time=1.000000
duration=16384
duration_time=1.000000
convergence_duration=N/A
convergence_duration_time=N/A
size=24
pos=825
flags=__
[/PACKET]
[PACKET]
codec_type=video
stream_index=0
pts=65536
pts_time=4.000000
dts=32768
dts_time=2.000000
duration=16384
duration_time=1.000000
convergence_duration=N/A
convergence_duration_time=N/A
size=24
pos=849
flags=__
[/PACKET]
